<svg id="Capa_1" enable-background="new 0 0 512 512" height="512" viewBox="0 0 512 512" width="512" xmlns="http://www.w3.org/2000/svg"><g><path d="m259.689 319.834c58.701 0 120.261-15.684 162.389-35.979 12.367-5.957 18.515-20.222 13.93-33.161-7.487-21.128-2.496-53.257-2.496-100.853 0-83.243-66.499-171.978-173.824-129.686-107.323-42.292-173.823 46.443-173.823 129.686 0 47.596 4.991 79.725-2.496 100.853-4.585 12.939 1.564 27.203 13.93 33.161 42.129 20.295 103.689 35.979 162.39 35.979z" fill="#565e75"/><path d="m124.704 343.511c-8.705 0-17.776-.967-27.209-3.133-14.972-3.437-24.322-18.36-20.885-33.332 3.438-14.972 18.36-24.321 33.332-20.885 33.798 7.757 59.972-11.397 90.683-37.245 11.752-9.892 29.299-8.384 39.19 3.37 9.892 11.752 8.383 29.299-3.37 39.19-24.023 20.218-61.827 52.035-111.741 52.035z" fill="#c99b80"/><path d="m392.824 367.372c-38.138-20.529-80.18-57.322-106.514-73.462-13.098-8.027-17.208-25.151-9.181-38.248 8.027-13.098 25.151-17.207 38.248-9.181 29.185 17.887 70.462 53.957 103.812 71.908 13.526 7.281 18.589 24.148 11.309 37.675-7.28 13.524-24.146 18.589-37.674 11.308z" fill="#c99b80"/><path d="m326.13 374.522c5.114-10.094 8.014-21.501 8.014-33.591v-57.024c0-33.092-26.826-59.918-59.918-59.918h-29.072c-33.092 0-59.918 26.826-59.918 59.918v57.024c0 12.09 2.9 23.496 8.014 33.591-5.638 23.732-11.663 78.615-11.663 102.164 0 15.361 12.453 27.814 27.814 27.814s27.814-12.453 27.814-27.814c0-14.999 2.782-42.175 5.68-63.226 5.4 1.246 11.017 1.926 16.796 1.926 5.779 0 11.396-.68 16.796-1.926 2.897 21.051 5.68 48.226 5.68 63.226 0 15.361 12.453 27.814 27.814 27.814s27.814-12.453 27.814-27.814c-.003-23.549-6.027-78.432-11.665-102.164z" fill="#d4d5d5"/><path d="m274.225 223.99h-29.072c-33.092 0-59.918 26.826-59.918 59.918v17.639c8.27 1.901 16.878 2.908 25.717 2.908h123.192v-20.547c0-33.092-26.827-59.918-59.919-59.918z" fill="#939597"/><path d="m186.314 353.559c1.274 7.419 3.642 14.464 6.934 20.963-5.638 23.732-11.663 78.615-11.663 102.164 0 15.361 12.453 27.814 27.814 27.814s27.814-12.453 27.814-27.814c0-14.999 2.782-42.175 5.68-63.226 5.4 1.246 11.017 1.926 16.796 1.926 5.779 0 11.396-.68 16.796-1.926 2.897 21.051 5.68 48.226 5.68 63.226 0 15.361 12.453 27.814 27.814 27.814s27.814-12.453 27.814-27.814c0-23.55-6.024-78.432-11.662-102.164 3.292-6.499 5.66-13.544 6.935-20.963z" fill="#939597"/><path d="m237.507 466.753c-15.283-6.233-40.778-7.245-55.362-5.642-.36 5.975-.56 11.295-.56 15.575 0 15.361 12.453 27.814 27.814 27.814s27.814-12.453 27.814-27.814c0-2.899.105-6.257.294-9.933z" fill="#fbf2b8"/><path d="m281.872 466.753c15.282-6.233 40.778-7.245 55.362-5.642.359 5.975.56 11.295.56 15.575 0 15.361-12.453 27.814-27.814 27.814s-27.814-12.453-27.814-27.814c-.001-2.899-.106-6.257-.294-9.933z" fill="#fbf2b8"/><ellipse cx="259.689" cy="149.561" fill="#c99b80" rx="133.477" ry="108.885"/><path d="m266.879 24.429c68.265-22.515 109.224 32.321 120.511 66.215 1.67 5.013-2.187 10.103-7.469 9.962-31.003-.831-88.973-22.683-113.767-37.557-3.982-2.388-8.949-2.388-12.93 0-24.839 14.9-82.975 36.805-113.936 37.561-5.211.127-8.948-5.019-7.301-9.964 11.287-33.894 52.245-88.733 120.512-66.217 4.676 1.542 9.704 1.542 14.38 0z" fill="#565e75"/><path d="m352.442 274.455h-141.49c-46.801 0-84.74-37.939-84.74-84.74v-141.49c0-22.492 18.233-40.725 40.725-40.725h185.505c22.492 0 40.725 18.233 40.725 40.725v185.505c-.001 22.492-18.234 40.725-40.725 40.725z" fill="#f5df4d"/><g><g><path d="m207.427 157.927c.007 13.438-13.667 24.338-30.541 24.346s-30.559-10.878-30.566-24.316 13.667-24.338 30.541-24.347c16.874-.008 30.559 10.879 30.566 24.317z" fill="#f1bdc4"/><path d="m311.929 157.874c.007 13.438 13.691 24.324 30.566 24.315 16.874-.008 30.548-10.909 30.541-24.346-.007-13.438-13.691-24.324-30.565-24.316-16.875.009-30.549 10.909-30.542 24.347z" fill="#f1bdc4"/><path d="m289.622 146.886c-.009-18.509-13.419-20.241-29.96-20.233-16.54.008-29.949 1.754-29.939 20.263.009 18.509 13.426 33.506 29.966 33.498 16.541-.008 29.942-15.019 29.933-33.528z" fill="#565e75"/></g></g><path d="m210.952 274.455c-46.801 0-84.74-37.939-84.74-84.74h44.015c22.492 0 40.725 18.233 40.725 40.725z" fill="#fbf2b8"/><path d="m21.39 307.41c-5.901 5.901-5.901 15.467 0 21.368l48.667 48.667c5.901 5.901 15.467 5.901 21.368 0l48.667-48.667c5.901-5.901 5.901-15.467 0-21.368l-48.667-48.667c-5.901-5.901-15.467-5.901-21.368 0z" fill="#f5df4d"/><path d="m495.025 327.018c0-8.345-6.765-15.109-15.109-15.109h-68.826c-8.345 0-15.109 6.765-15.109 15.109v68.825c0 8.345 6.765 15.109 15.109 15.109h68.825c8.345 0 15.109-6.765 15.109-15.109v-68.825z" fill="#f5df4d"/><path d="m180.124 138.964h.003c4.143-.002 7.499-3.361 7.497-7.503-.002-3.884 3.156-7.044 7.039-7.046h.004c3.881 0 7.041 3.157 7.043 7.039.002 4.141 3.359 7.496 7.5 7.496h.004c4.143-.002 7.499-3.362 7.496-7.504-.007-12.151-9.893-22.031-22.043-22.031h-.011c-12.154.006-22.038 9.899-22.032 22.053.002 4.14 3.359 7.496 7.5 7.496zm274.731 214.967h-18.704c-4.142 0-7.5 3.358-7.5 7.5s3.358 7.5 7.5 7.5h18.704c4.142 0 7.5-3.358 7.5-7.5s-3.358-7.5-7.5-7.5zm-195.18-166.017h.018c20.65-.01 37.44-18.417 37.429-41.032-.006-11.428-4.343-19.418-12.892-23.748-6.514-3.299-14.492-3.981-24.461-3.981h-.11c-12.155.006-37.449.019-37.436 27.767.011 22.157 16.303 40.995 37.452 40.994zm-.009-53.761h.12c6.768 0 13.579.293 17.667 2.363 2.423 1.227 4.665 3.333 4.669 10.374.007 14.344-10.058 26.018-22.437 26.024h-.01c-12.897 0-22.446-12.295-22.453-26.002-.004-9.721 3.091-12.749 22.444-12.759zm50.457 4.745c4.143-.002 7.499-3.361 7.497-7.503-.002-3.884 3.156-7.044 7.039-7.046h.004c3.882 0 7.041 3.157 7.043 7.039.002 4.142 3.359 7.497 7.5 7.497h.003c4.143-.002 7.499-3.361 7.497-7.503-.006-12.151-9.893-22.032-22.043-22.032h-.011c-12.182.006-22.038 9.869-22.032 22.053.002 4.141 3.359 7.497 7.5 7.497h.003zm169.792 165.511c-79.104.013-68.812-.013-69.711.023-2.236-1.4-4.493-2.852-6.771-4.357 7.695-2.991 15.031-6.153 21.9-9.462 15.961-7.69 23.589-25.928 17.744-42.423-6.881-19.417-2.065-51.253-2.065-98.348 0-40.806-15.282-81.467-40.973-109.343-3.709-22.931-23.636-40.499-47.597-40.499h-164.199c-4.142 0-7.5 3.358-7.5 7.5s3.358 7.5 7.5 7.5h164.198c18.32 0 33.225 14.904 33.225 33.225v185.505c0 18.32-14.905 33.225-33.225 33.225h-133.99v-36.515c0-26.591-21.634-48.225-48.225-48.225h-36.515v-133.99c0-13.845 8.721-26.373 21.7-31.174 3.885-1.437 5.869-5.751 4.432-9.636-1.437-3.884-5.751-5.87-9.636-4.432-16.384 6.06-28.087 20.603-30.861 37.506-25.696 27.875-40.981 68.541-40.981 109.352 0 46.219 4.653 77.864-1.752 97.373-4.347.801-8.505 2.871-11.86 6.226l-48.666 48.667s0 0-.001 0c-8.815 8.816-8.815 23.16.001 31.975l48.666 48.667c8.815 8.813 23.159 8.816 31.975-.001l31.818-31.818c16.357-.513 32.844-4.32 49.188-11.326.137 1.339-1.052 17.22 7.615 35.822-5.784 26.304-11.264 78.976-11.264 101.26 0 19.472 15.842 35.314 35.314 35.314s35.314-15.842 35.314-35.314c0-12.999 2.169-35.455 4.586-54.468 6.916.888 13.863.889 20.779 0 2.418 19.013 4.586 41.468 4.586 54.468 0 19.472 15.842 35.314 35.314 35.314s35.314-15.842 35.314-35.314c0-22.286-5.48-74.958-11.263-101.26 4.757-10.21 7.303-21.077 7.586-32.37 15.46 11.218 31.427 22.1 46.865 30.487v22.301c0 12.467 10.143 22.609 22.609 22.609h41.029c4.142 0 7.5-3.358 7.5-7.5s-3.358-7.5-7.5-7.5h-41.028c-4.196 0-7.609-3.414-7.609-7.609v-68.825c0-4.196 3.414-7.609 7.609-7.609h68.825c4.196 0 7.609 3.414 7.609 7.609v68.825c0 2.736-1.482 5.276-3.867 6.629-3.604 2.043-4.868 6.62-2.825 10.223 2.042 3.603 6.621 4.868 10.223 2.825 7.074-4.011 11.468-11.551 11.468-19.677v-68.825c.002-12.468-10.141-22.61-22.608-22.61zm-153.31-22.454c.026.698.162 59.83-.159 64.105h-133.513c-.355-4.726-.128-2.107-.198-62.151 0-1.242.062-2.488.152-3.735 15.598 3.109 16.489 1.216 133.718 1.781zm-233.24-132.114c0-30.403 9.258-60.636 25.346-84.409v124.283c0 33.131 17.561 62.234 43.86 78.501-14.258 8.694-26.433 12.452-38.919 12.149-27.327-26.902-27.029-28.012-32.078-30.768 6.468-22.625 1.791-53.75 1.791-99.756zm41.423 173.634-48.666 48.667c-2.967 2.967-7.795 2.967-10.762 0l-48.666-48.667c-2.967-2.967-2.967-7.794 0-10.762l48.666-48.666c2.968-2.968 7.795-2.967 10.762-.001l48.666 48.667c2.974 2.974 2.975 7.787 0 10.762zm42.946-.325c-10.876 5.257-21.577 8.862-32.296 10.884 8.796-8.845 8.775-23.108-.044-31.927l-7.862-7.862c15.935-2.856 29.594-10.642 40.678-18.299.005.002.009.004.014.005-.847 7.101-.337 8.165-.49 47.199zm-43.652-125.935h36.145c18.32 0 33.225 14.905 33.225 33.225v36.145c-36.615-3.546-65.825-32.756-69.37-69.37zm95.631 279.471c0 11.201-9.113 20.314-20.314 20.314s-20.314-9.113-20.314-20.314c0-2.544.074-5.45.206-8.61 12.835-.631 29.012.578 40.495 3.94-.048 1.655-.073 3.217-.073 4.67zm54.202-64.248c-.6-4.35-4.805-7.278-9.116-6.286-9.98 2.302-20.241 2.302-30.221 0-4.274-.989-8.512 1.903-9.116 6.286-1.863 13.539-3.737 30.102-4.818 44.298-12.437-3.072-27.778-4.162-40.429-3.704 2.028-26.303 6.442-60.411 10.33-76.776 1.038-4.368-1.529-5.115-4.721-15.197h127.731c-3.215 10.151-5.763 10.814-4.721 15.197 3.887 16.364 8.301 50.472 10.329 76.776-12.65-.458-27.992.63-40.429 3.701-1.082-14.196-2.956-30.758-4.819-44.295zm26.063 84.562c-11.201 0-20.314-9.113-20.314-20.314 0-1.453-.025-3.015-.073-4.67 11.482-3.362 27.659-4.57 40.495-3.94.132 3.16.206 6.066.206 8.61 0 11.201-9.113 20.314-20.314 20.314zm78.503-169.982v29.295c-15.465-9.075-31.497-20.487-46.837-31.835-.017-43.301.035-40.173-.037-42.523 2.622-.001 9.134.002 10.959-.003 13.417 10.022 27.798 20.8 41.67 30.018-3.576 3.999-5.755 9.273-5.755 15.048zm-.12-37.338c-5.416-3.865-10.873-7.873-16.31-11.909 16.843-7.529 28.615-24.431 28.615-44.041v-168.297c16.089 23.773 25.346 54.006 25.346 84.409 0 48.635-5.201 80.423 2.926 103.358 3.283 9.265-1.066 19.54-10.116 23.899-9.321 4.49-19.557 8.714-30.461 12.581zm-307.545 17.732-10.757 10.757c-2.929 2.929-2.929 7.678 0 10.607 2.928 2.929 7.677 2.929 10.606 0l10.757-10.757c2.929-2.929 2.929-7.678 0-10.606-2.928-2.931-7.677-2.93-10.606-.001z"/></g></svg>