<svg id="Capa_1" enable-background="new 0 0 512 512" height="512" viewBox="0 0 512 512" width="512" xmlns="http://www.w3.org/2000/svg"><g><path d="m160.072 57.365c18.533 18.32 18.599 48.196.197 66.598-15.352 15.352-56.122 40.461-92.946 35.483-9.651-1.305-14.95-12.112-9.82-20.39 16.216-26.169 9.947-53.18 34.232-79.286 18.279-19.65 49.25-21.272 68.337-2.405z" fill="#565e75"/><path d="m434.842 141.723c0-78.158-58.586-134.223-164.09-134.223s-164.09 56.065-164.09 134.223z" fill="#f5df4d"/><path d="m254.418 269.357c-7.519-12.268-23.558-16.116-35.823-8.599-21.26 13.029-53.939 25.003-84.878 52.34 2.384 18.328 16.084 34.255 37.239 36.655l.001.001c24.525-20.666 51.632-30.337 74.862-44.574 12.268-7.518 16.117-23.557 8.599-35.823z" fill="#939597"/><path d="m133.716 313.089c-4.871 4.304-9.699 8.984-14.432 14.114-9.756 10.574-9.093 27.055 1.481 36.811 10.597 9.776 27.075 9.071 36.811-1.481 4.347-4.711 8.819-8.935 13.381-12.78-7.757-14.007-23.015-29.484-37.241-36.664z" fill="#c99b80"/><path d="m397.399 290.713c-22.048 2.973-39.907-7.275-62.731-22.368-4.049-2.678-7.874-5.207-11.758-7.587-12.265-7.516-28.304-3.669-35.823 8.599-7.518 12.267-3.668 28.305 8.599 35.823 14.405 8.826 34.26 24.453 60.082 32.668 16.352 5.202 32.883 6.614 49.393 4.313 12.83-23.68 4.379-38.054-7.762-51.448z" fill="#939597"/><path d="m445.961 302.089c-5.05-13.471-20.065-20.301-33.537-15.25-5.269 1.975-10.244 3.23-15.025 3.875-7.134 15.162-.901 39.606 7.747 51.473 8.533-1.189 17.064-3.375 25.564-6.561 13.472-5.05 20.301-20.066 15.251-33.537z" fill="#c99b80"/><path d="m340.486 350.262v-53.408c0-2.887-.219-5.723-.64-8.493-19.601 0-43.853-3.187-69.093-3.187-25.241 0-49.493 3.187-69.094 3.187-.421 2.77-.64 5.606-.64 8.493v53.408c0 11.727 2.908 22.77 8.023 32.47-3.148 11.955-6.426 34.087-8.663 55.082 13.259 12.999 39.504 13.44 51.558 7.774.988-9.376 2.2-18.969 3.417-27.32 4.956 1.118 10.105 1.727 15.399 1.727 6.009 0 11.841-.761 17.404-2.19 1.979 7.804 4.029 16.475 5.825 24.924 16.917 7.422 43.163-.077 50.079-14.869-4.087-18.634-8.87-36.274-11.553-45.216 5.086-9.678 7.978-20.69 7.978-32.382z" fill="#d4d5d5"/><g fill="#939597"><path d="m284.367 240.735h-27.229c-28.106 0-51.385 20.663-55.479 47.626 20.544 8.421 43.853 12.772 69.094 12.772 25.24 0 48.549-4.351 69.093-12.771-4.093-26.964-27.373-47.627-55.479-47.627z"/><path d="m85.01 180.036c0 28.921 24.417 52.366 48.111 52.366s42.901-23.445 42.901-52.366-19.207-52.366-42.901-52.366-48.111 23.445-48.111 52.366z"/><path d="m456.496 180.036c0 28.921-24.417 52.366-48.111 52.366-23.693 0-42.901-23.445-42.901-52.366s19.207-52.366 42.901-52.366c23.693 0 48.111 23.445 48.111 52.366z"/></g><ellipse cx="270.753" cy="174.152" fill="#c99b80" rx="125.014" ry="101.98"/><g><g><ellipse cx="191.196" cy="198.385" fill="#f1bdc4" rx="29.355" ry="23.377"/><ellipse cx="350.309" cy="198.385" fill="#f1bdc4" rx="29.355" ry="23.377"/><path d="m270.753 173.547c-11.646 0-22.017-7.826-28.539 1.825-6.617 9.79 8.202 24.97 28.539 24.97s35.156-15.18 28.539-24.97c-6.523-9.65-16.894-1.825-28.539-1.825z" fill="#565e75"/></g></g><path d="m275.621 57.587c63.761-22.106 117.258 30.302 121.094 69.369.797 8.112-6.325 14.809-14.379 13.553-29.427-4.59-79.741-30.609-103.341-45.745-5.029-3.225-11.458-3.225-16.487 0-23.6 15.136-73.914 41.156-103.341 45.745-8.054 1.256-15.175-5.441-14.379-13.553 3.836-39.067 57.333-91.475 121.094-69.369 3.151 1.092 6.591 1.092 9.739 0z" fill="#565e75"/><path d="m293.982 442.729c16.918 7.422 43.163-.076 50.079-14.869-4.087-18.634-8.87-36.274-11.553-45.216 3.762-7.159 6.319-15.049 7.398-23.402h-138.307c1.083 8.388 3.656 16.308 7.443 23.49-3.147 11.954-6.427 34.087-8.664 55.082 13.259 12.999 39.504 13.44 51.558 7.774.988-9.376 2.2-18.97 3.417-27.32 4.956 1.118 10.105 1.727 15.399 1.727 6.009 0 11.841-.761 17.404-2.19 1.98 7.804 4.03 16.475 5.826 24.924z" fill="#f5df4d"/><path d="m249.702 478.45c0-8.268.918-20.373 2.234-32.862-12.153-4.829-36.409-7.871-51.558-7.774-1.683 15.796-2.777 30.949-2.777 40.636 0 14.387 11.664 26.05 26.05 26.05s26.051-11.663 26.051-26.05z" fill="#c99b80"/><path d="m351.436 478.45c0-12.925-3.35-32.24-7.375-50.59-14.871 1.962-38.521 8.366-50.079 14.869 3.041 14.306 5.354 27.975 5.354 35.721 0 14.387 11.663 26.05 26.05 26.05 14.386 0 26.05-11.663 26.05-26.05z" fill="#c99b80"/><path d="m409.793 279.816c-24.062 9.019-41.234 1.43-64.369-13.409 15.36-8.227 28.881-19.49 39.044-33.647 34.689 22.287 79.528-11.018 79.528-52.724 0-17.856-8.067-34.785-21.875-46.569-3.764-73.13-59.753-133.467-171.368-133.467-45.176 0-91.977 10.337-126.133 39.325-20.343-6.757-43.271-.9-58.376 15.338-7.661 8.236-13.149 17.117-17.271 27.949-1.473 3.872.472 8.204 4.343 9.677 3.863 1.47 8.201-.463 9.677-4.343 3.411-8.964 7.934-16.294 14.233-23.066 9.104-9.787 22.032-14.448 34.571-13.079-19.672 21.992-30.774 49.831-32.412 81.667-6.269 5.351-11.333 11.769-14.984 18.737-5.641.546-11.035.491-16.074-.19-4.322-.584-6.686-5.396-4.449-9.007 3.956-6.384 7.023-13.303 9.652-21.772 1.228-3.956-.983-8.159-4.939-9.387-3.962-1.228-8.159.984-9.387 4.939-2.242 7.224-4.808 13.044-8.076 18.319-7.975 12.867.126 29.736 15.189 31.773 4.201.568 8.287.765 12.535.672-10.159 47.271 40.176 89.63 78.189 65.214 9.777 13.618 22.673 24.562 37.273 32.682-30.002 15.457-55.65 29.691-80.542 56.67-12.545 13.596-11.689 34.863 1.907 47.409 13.597 12.544 34.865 11.685 47.409-1.908 10.043-10.886 20.774-18.914 30.431-25.065.36 4.237-2.032 21.004 7.573 41.06-5.563 23.451-10.991 73.463-10.991 94.836 0 18.5 15.051 33.55 33.55 33.55 18.5 0 33.551-15.05 33.551-33.55 0-12.46 2.181-33.984 4.514-51.491 6.993.828 14.027.688 20.893-.371 5.661 23.3 9.227 43.216 9.227 51.862 0 18.5 15.051 33.55 33.55 33.55 12.046 0 23.229-6.512 29.185-16.994 2.047-3.601.786-8.18-2.815-10.226-3.602-2.046-8.181-.786-10.226 2.816-3.296 5.8-9.482 9.404-16.143 9.404-10.228 0-18.55-8.321-18.55-18.55 0-7.721-1.975-19.841-4.335-31.566 9.649-4.244 24.154-8.299 35.716-10.478 1.467 7.117 2.791 14.29 3.804 21.086.607 4.072 4.4 6.924 8.524 6.311 4.097-.611 6.923-4.428 6.312-8.524-3.609-24.199-11.415-55.069-16.32-71.928 9.397-19.811 7.115-36.436 7.449-40.354 28.092 10.335 56.072 10.627 85.356-.35 17.363-6.507 26.15-25.826 19.641-43.191-6.508-17.361-25.827-26.15-43.191-19.64zm39.202-99.78c0 20.748-17.739 44.866-40.61 44.866-5.656 0-11.132-1.694-16.094-4.936 7.188-14.007 10.976-29.543 10.976-45.814 0-10.66-1.851-21.145-5.49-31.259 2.24-2.055 3.895-4.451 4.999-7.123 23.614-4.862 46.219 20.264 46.219 44.266zm-178.242-165.036c88.478 0 146.715 41.284 155.426 108.724-7.187-2.88-15.005-4.193-22.86-3.245-4.347-22.11-21.044-45.01-43.918-59.658-26.275-16.827-56.901-20.491-86.237-10.321-1.556.539-3.27.54-4.823 0-29.338-10.17-59.962-6.506-86.237 10.32-22.874 14.648-39.57 37.548-43.918 59.657-7.84-.946-15.663.362-22.861 3.247 8.71-67.44 66.949-108.724 155.428-108.724zm-137.633 209.902c-22.871 0-40.61-24.118-40.61-44.866 0-23.972 22.578-49.134 46.22-44.266 1.103 2.671 2.74 5.045 4.997 7.114-3.639 10.115-5.487 20.604-5.487 31.268 0 16.271 3.788 31.807 10.976 45.813-4.963 3.243-10.439 4.937-16.096 4.937zm19.133-97.213c1.877-19.111 17.124-40.907 37.939-54.237 21.814-13.969 47.775-17.606 73.234-8.779 4.724 1.638 9.926 1.639 14.651 0 24.904-8.635 50.91-5.517 73.234 8.779 20.816 13.33 36.063 35.126 37.94 54.238.319 3.249-2.565 5.913-5.759 5.409-26.586-4.146-75.418-28.594-100.448-44.648-7.469-4.788-17.118-4.789-24.585.001-25.03 16.054-73.862 40.502-100.448 44.648-3.185.497-6.077-2.149-5.758-5.411zm-.188 229.758c-6.936 7.517-18.695 7.99-26.214 1.055-7.518-6.937-7.99-18.696-1.054-26.213 3.269-3.543 6.592-6.864 9.949-9.996 9.632 6.033 19.751 15.959 26.519 26.004-3.089 2.826-6.168 5.863-9.2 9.15zm41.455-32.445c-6.335 3.684-13.401 8.126-20.696 13.662-6.995-10.011-16.562-19.641-26.3-26.516 16.761-13.326 33.799-22.569 48.803-30.343-2.865 11.776-1.406 18.303-1.807 43.197zm48.682 153.448c0 10.229-8.322 18.55-18.551 18.55s-18.55-8.321-18.55-18.55c0-7.828.792-19.877 2.06-32.99 11.75.54 26.635 2.524 36.706 5.35-1.002 10.478-1.665 20.366-1.665 27.64zm-33.682-181.596c0-7.908 1.897-15.579 5.517-22.491 34.455 12.368 78.849 12.414 113.432 0 3.62 6.912 5.518 14.583 5.518 22.491-.018 29.808.034 51.489-.044 54.888h-124.38c-.083-3.616-.019-14.203-.043-54.888zm90.763 135.116c-1.578-6.895-3.017-12.693-3.857-16.008-1.015-4.008-5.098-6.453-9.136-5.42-9.44 2.426-19.526 2.612-29.286.41-4.273-.962-8.443 1.922-9.072 6.234-.836 5.736-1.674 12.071-2.441 18.543-10.95-2.782-25.037-4.616-36.727-5.207 2.111-17.975 4.867-35.762 7.531-45.879 1.299-4.932-2.229-5.838-5.547-17.899h120.009c-1.174 4.265-2.787 8.415-4.888 12.414-.913 1.737-1.109 3.764-.545 5.644 1.894 6.315 5.867 20.609 9.669 36.947-11.411 2.169-25.122 5.927-35.71 10.221zm-28.53-163.338c-75.699 0-117.514-45.499-117.514-94.48 0-8.858 1.546-17.58 4.556-26.012.84-.025 1.684-.088 2.529-.22 33.145-5.17 85.886-33.792 106.233-46.843 2.548-1.635 5.84-1.635 8.39 0 20.348 13.051 73.088 41.673 106.233 46.843.846.132 1.692.205 2.533.231 3.008 8.429 4.553 17.148 4.553 26.001.001 48.848-41.687 94.48-117.513 94.48zm77.233 58.265c-.281-28.094.701-32.429-1.128-42.02 13.538 7.89 26.383 13.255 40.496 13.822-1.833 12.412 1.116 26.317 5.708 37.009-14.95.433-29.896-2.502-45.076-8.811zm80.093 1.705c-6.443 2.415-12.852 4.212-19.243 5.405-5.644-10.201-8.862-25.923-5.922-36.609 3.909-.8 7.944-1.962 12.144-3.536 9.601-3.597 20.282 1.259 23.881 10.86 3.597 9.6-1.259 20.282-10.86 23.88zm-157.326-162.555c-9.857 0-25.041-9.244-34.754 5.126-3.672 5.433-3.846 12.188-.477 18.531 5.672 10.68 20.159 18.138 35.231 18.138 25.723 0 45.418-20.888 34.753-36.669-9.698-14.351-24.894-5.126-34.753-5.126zm0 26.795c-15.687 0-24.292-10.364-22.326-13.27.656-.972 1.144-1.525 2.765-1.525 4.031 0 11.646 2.999 19.562 2.999 4.673 0 8.908-.97 12.645-1.826 7.857-1.798 8.489-1.411 9.68.351 1.942 2.877-6.563 13.271-22.326 13.271zm80.332-30.132c-3.123-2.722-7.859-2.396-10.582.726-1.844 2.116-4.506 3.33-7.302 3.33s-5.458-1.214-7.302-3.33c-2.723-3.123-7.46-3.448-10.582-.726-3.123 2.721-3.448 7.459-.727 10.581 4.694 5.386 11.478 8.475 18.61 8.475 7.133 0 13.916-3.089 18.61-8.475 2.723-3.122 2.398-7.86-.725-10.581zm-124.897 0c-3.123-2.722-7.859-2.396-10.582.726-1.844 2.116-4.506 3.33-7.302 3.33s-5.458-1.214-7.302-3.33c-2.723-3.123-7.46-3.448-10.582-.726-3.123 2.721-3.448 7.459-.727 10.581 4.694 5.386 11.478 8.475 18.61 8.475 7.133 0 13.916-3.089 18.61-8.475 2.723-3.122 2.398-7.86-.725-10.581z"/></g></svg>