<svg id="Capa_1" enable-background="new 0 0 512.04 512.04" height="512" viewBox="0 0 512.04 512.04" width="512" xmlns="http://www.w3.org/2000/svg"><g><path d="m256.02 310.955c57.352 0 117.498-15.325 158.655-35.154 12.075-5.818 18.082-19.747 13.602-32.38-7.32-20.641-2.442-52.032-2.442-98.538 0-79.226-61.658-163.543-161.782-129.639-5.207 1.763-10.858 1.763-16.065 0-100.125-33.904-161.783 50.414-161.783 129.639 0 46.507 4.878 77.897-2.442 98.538-4.48 12.633 1.527 26.562 13.602 32.38 41.157 19.829 101.303 35.154 158.655 35.154z" fill="#565e75"/><path d="m85.139 345.021c-8.831-12.678-5.714-30.114 6.964-38.946 40.678-28.337 75.666-49.671 114.201-61.676 14.751-4.596 30.434 3.637 35.031 18.389 4.595 14.751-3.637 30.435-18.388 35.031-31.689 9.872-62.439 28.794-98.862 54.166-12.622 8.793-30.075 5.769-38.946-6.964z" fill="#939597"/><path d="m108.695 294.724c-5.44 3.65-10.957 7.426-16.591 11.351-12.678 8.831-15.795 26.268-6.964 38.946 8.87 12.733 26.323 15.757 38.946 6.964 5.268-3.67 10.406-7.188 15.457-10.58-4.391-16.689-16.482-36.694-30.848-46.681z" fill="#c99b80"/><path d="m282.796 294.962c-13.174-8.074-17.308-25.298-9.234-38.471 8.075-13.175 25.298-17.307 38.471-9.234 17.274 10.587 65.068 13.164 100.647-6.893 13.457-7.591 30.521-2.829 38.108 10.631 7.588 13.459 2.828 30.521-10.631 38.108-45.307 25.543-116.554 30.869-157.361 5.859z" fill="#939597"/><path d="m450.788 250.994c-7.587-13.459-24.651-18.221-38.108-10.631-6.566 3.701-13.549 6.627-20.678 8.878-1.294 16.768 4.601 41.208 18.585 52.573 10.58-3.396 20.589-7.65 29.57-12.713 13.459-7.586 18.219-24.648 10.631-38.107z" fill="#c99b80"/><path d="m277.483 438.625c19.039 7.921 41.743 7.211 54.568-12.758-3.423-19.914-7.348-39.223-10.475-50.762 5.94-10.732 9.331-23.07 9.331-36.205v-57.355c0-33.284-26.982-60.267-60.267-60.267h-29.242c-33.284 0-60.267 26.982-60.267 60.267v57.355c0 13.135 3.392 25.473 9.332 36.206-3.127 11.539-7.052 30.849-10.475 50.762 11.221 16.598 35.109 17.195 54.568 12.758 1.59-9.425 3.287-18.633 4.898-26.699 5.331 1.204 10.869 1.861 16.564 1.861 5.695 0 11.233-.657 16.564-1.861 1.614 8.064 3.311 17.273 4.901 26.698z" fill="#d4d5d5"/><path d="m270.641 221.277h-29.242c-29.53 0-54.083 21.245-59.25 49.281 21.932 9.053 46.856 13.732 73.87 13.732 27.015 0 51.939-4.68 73.87-13.732-5.165-28.036-29.718-49.281-59.248-49.281z" fill="#939597"/><ellipse cx="256.02" cy="149.772" fill="#c99b80" rx="134.254" ry="109.518"/><g><g><ellipse cx="174.759" cy="181.359" fill="#f1bdc4" rx="29.984" ry="23.878"/><ellipse cx="337.281" cy="181.359" fill="#f1bdc4" rx="29.984" ry="23.878"/><path d="m283.087 176.118c0-6.242-3.266-12.036-8.616-15.252-5.391-3.241-11.702-5.105-18.45-5.105-6.749 0-13.06 1.865-18.45 5.105-5.35 3.216-8.616 9.01-8.616 15.252v86.13c0 14.948 12.118 27.067 27.067 27.067 14.948 0 27.067-12.118 27.067-27.067v-86.13z" fill="#565e75"/><g fill="#fff"><circle cx="192.019" cy="140.3" r="28.738"/><circle cx="320.021" cy="140.3" r="28.738"/></g></g></g><path d="m263.252 23.912c68.663-22.646 109.859 32.51 121.213 66.601 1.679 5.042-2.2 10.162-7.513 10.02-31.184-.836-89.491-22.815-114.43-37.775-4.005-2.402-9.001-2.402-13.005 0-24.984 14.987-83.458 37.019-114.599 37.78-5.241.128-9-5.048-7.344-10.022 11.353-34.091 52.55-89.249 121.213-66.603 4.705 1.55 9.762 1.55 14.465-.001z" fill="#565e75"/><path d="m277.483 438.625c19.039 7.921 41.743 7.211 54.568-12.758-3.423-19.914-7.348-39.223-10.475-50.762 4.665-8.429 7.749-17.851 8.862-27.869h-148.836c1.113 10.018 4.197 19.44 8.862 27.869-3.127 11.539-7.052 30.849-10.475 50.762 11.221 16.598 35.109 17.195 54.568 12.758 1.59-9.425 3.287-18.633 4.898-26.699 5.331 1.204 10.869 1.861 16.564 1.861 5.695 0 11.233-.657 16.564-1.861 1.613 8.065 3.31 17.274 4.9 26.699z" fill="#f5df4d"/><path d="m179.989 425.866c-2.92 16.986-5.475 34.412-6.856 47.832-1.581 15.37 9.596 29.111 24.965 30.692 15.398 1.581 29.113-9.621 30.692-24.965 1.238-12.034 3.382-26.664 5.767-40.802-12.405-6.679-36.918-11.454-54.568-12.757z" fill="#c99b80"/><path d="m338.908 473.699c-1.381-13.421-3.937-30.846-6.857-47.832-17.65 1.303-42.164 6.077-54.569 12.758 2.385 14.137 4.529 28.768 5.767 40.801 1.582 15.37 15.322 26.545 30.692 24.965 15.371-1.581 26.548-15.322 24.967-30.692z" fill="#c99b80"/><path d="m54.98 19.695c-2.929-2.929-7.678-2.929-10.606 0-2.929 2.929-2.929 7.678 0 10.606l14.828 14.829c2.929 2.929 7.678 2.929 10.607 0s2.929-7.678 0-10.606zm-9.78 119.22h-26.472c-4.142 0-7.5 3.358-7.5 7.5s3.358 7.5 7.5 7.5h26.472c4.142 0 7.5-3.358 7.5-7.5s-3.358-7.5-7.5-7.5zm274.821-5.866c-4.005 0-7.251 3.247-7.251 7.251 0 4.005 3.246 7.251 7.251 7.251s7.251-3.246 7.251-7.251c.001-4.004-3.246-7.251-7.251-7.251zm132.818-87.919 14.829-14.829c2.929-2.929 2.929-7.678 0-10.606-2.93-2.929-7.678-2.929-10.608 0l-14.829 14.829c-2.929 2.929-2.929 7.678 0 10.606 2.93 2.929 7.678 2.929 10.608 0zm-260.82 87.919c-4.005 0-7.251 3.247-7.251 7.251 0 4.005 3.247 7.251 7.251 7.251 4.005 0 7.251-3.246 7.251-7.251 0-4.004-3.246-7.251-7.251-7.251zm240.786 96.79c-2.638-19.202.529-47.497.529-84.956 0-31.594-9.197-63.097-25.898-88.706-2.263-3.47-6.91-4.448-10.379-2.186-3.47 2.263-4.448 6.91-2.185 10.379 15.13 23.201 23.463 51.794 23.463 80.512 0 37.03-3.131 64.505-.586 85.443-3.022.767-5.964 1.931-8.752 3.503-21.958 12.379-49.817 15.793-70.926 13.288 60.521-33.665 74.581-101.553 44.243-150.581-1.311-2.118-3.587-3.447-6.075-3.547-30.31-1.222-86.659-22.749-109.857-36.666-6.39-3.832-14.33-3.833-20.722.001-23.197 13.916-79.546 35.443-109.855 36.664-2.488.101-4.765 1.43-6.075 3.547-30.197 48.791-16.68 117.761 45.856 151.46-18.941 8.336-37.194 18.695-54.715 29.805-7.153-2.785-13.952-5.723-20.249-8.757-8.758-4.219-12.966-14.157-9.789-23.116 7.961-22.45 2.873-53.551 2.873-101.045 0-74.719 57.253-154.579 151.877-122.535 6.731 2.278 14.145 2.279 20.875 0 51.228-17.345 85.887-.717 105.94 16.286 3.16 2.679 7.893 2.289 10.571-.871 2.679-3.159 2.289-7.892-.87-10.571-15.544-13.179-33.32-21.675-52.835-25.252-21.227-3.889-43.977-1.804-67.617 6.2-3.629 1.229-7.626 1.228-11.254 0-53.093-17.977-90.641-2.812-112.793 13.075-38.279 27.452-58.895 76.893-58.895 123.67 0 45.99 4.702 77.101-2.011 96.031-5.742 16.191 1.745 34.094 17.416 41.644 3.676 1.771 7.524 3.503 11.487 5.198-6.02 4.029-11.949 8.103-17.781 12.165-16.05 11.181-20.011 33.336-8.831 49.387 11.128 15.973 33.263 20.062 49.387 8.831 17.972-12.519 32.413-21.923 45.26-29.442.5 5.883-2.557 24.774 8.836 47.328-4.587 17.969-10.65 50.532-14.448 77.836-.626 4.498 2.864 8.535 7.437 8.535 3.684 0 6.897-2.715 7.419-6.467.985-7.081 2.123-14.513 3.346-21.938 13.484 1.539 29.513 4.805 40.006 9.034-1.972 12.122-3.778 24.736-4.899 35.635-1.155 11.229-11.23 19.426-22.464 18.272-6.653-.685-12.567-4.591-15.819-10.45-2.01-3.622-6.576-4.927-10.198-2.918-3.622 2.011-4.928 6.576-2.917 10.198 5.63 10.142 15.873 16.905 27.4 18.091 19.455 1.996 36.918-12.203 38.919-31.658 1.906-18.518 5.855-42.206 9.159-59.6 7.062.922 14.159.922 21.222 0 3.305 17.397 7.253 41.086 9.157 59.601 2.006 19.486 19.497 33.66 38.921 31.657 19.504-2.006 33.666-19.414 31.659-38.921-2.864-27.824-10.825-73.554-16.796-96.907 5.789-11.46 8.835-24.229 8.835-37.125v-20.598c37.911 2.452 77.225-6.764 105.433-22.666 17.079-9.629 23.112-31.245 13.48-48.324-5.168-9.17-13.984-15.526-24.515-17.473zm-313.007 115.992c-9.264 6.453-22.051 4.167-28.504-5.097-6.454-9.265-4.167-22.052 5.097-28.505 3.944-2.748 7.936-5.498 11.965-8.236 9.236 8.061 17.873 21.29 22.385 34.308-3.513 2.387-7.144 4.884-10.943 7.53zm53.834-34.402c-9.157 5.087-18.933 11.035-30.067 18.312-5.072-12.829-13.244-25.335-22.384-34.3 17.542-11.46 35.803-22.305 54.662-31.092-3.475 13.271-1.735 20.891-2.211 47.08zm15-29.885c0-8.777 2.15-17.285 6.254-24.918 8.371 3.042 17.261 5.445 26.606 7.144.8 18.356 15.978 33.046 34.528 33.046 18.549 0 33.728-14.689 34.528-33.046 9.345-1.7 18.235-4.103 26.606-7.144 4.105 7.633 6.254 16.142 6.254 24.918-.002 13.614.01 56.33-.013 58.192h-134.749c-.025-2.011-.002 10.65-.014-58.192zm47.821-19.296v-86.13c0-3.596 1.909-6.977 4.98-8.824 8.94-5.374 20.222-5.381 29.172 0 3.072 1.846 4.98 5.228 4.98 8.824v86.13c0 10.789-8.777 19.567-19.566 19.567-10.788 0-19.566-8.778-19.566-19.567zm43.486 148.209c-.824-4.13-4.893-6.774-9.007-5.847-9.852 2.226-19.974 2.225-29.824 0-4.124-.931-8.184 1.726-9.007 5.846-1.019 5.099-2.151 11.072-3.301 17.508-11.719-4.236-26.931-7.246-40.024-8.781 3.04-16.876 6.298-32.419 8.926-42.116.51-1.882.267-3.888-.677-5.594-2.912-5.261-5.088-10.902-6.497-16.737h130.982c-1.409 5.835-3.585 11.475-6.497 16.736-.943 1.706-1.186 3.712-.677 5.593 2.665 9.834 5.908 25.434 8.91 42.119-13.09 1.536-28.294 4.545-40.008 8.779-1.148-6.435-2.28-12.408-3.299-17.506zm51.508 64.01c1.158 11.258-7.013 21.305-18.272 22.464-11.225 1.155-21.309-7.042-22.465-18.272-1.121-10.897-2.927-23.512-4.899-35.635 10.488-4.227 26.508-7.492 39.988-9.031 2.43 14.732 4.493 29.253 5.648 40.474zm-40.86-226v-72.349c0-8.83-4.694-17.138-12.252-21.681-13.692-8.231-30.92-8.24-44.629 0-7.558 4.544-12.252 12.851-12.252 21.68v72.342c-82.645-16.449-110.178-88.987-80.914-140.745 34.21-2.9 89.557-24.562 112.836-38.527 1.632-.98 3.659-.979 5.29-.001 23.28 13.965 78.627 35.628 112.838 38.528 29.324 51.876 1.598 124.324-80.917 140.753zm47.821 54.82c-.495-17.547 1.468-26.956-2.902-41.39 14.397 1.809 31.75 1.264 49.018-2.799.885 13.333 4.96 27.829 12.534 38.835-18.992 4.784-39.345 6.725-58.65 5.354zm98.065-20.717c-7.372 4.156-15.456 7.752-23.991 10.742-8.45-9.142-13.004-25.269-13.152-38.622 5.833-2.128 11.554-4.705 17.034-7.794 9.851-5.56 22.333-2.079 27.891 7.782 5.558 9.857 2.078 22.333-7.782 27.892zm56.839-143.655h-26.472c-4.143 0-7.5 3.358-7.5 7.5s3.357 7.5 7.5 7.5h26.472c4.143 0 7.5-3.358 7.5-7.5s-3.357-7.5-7.5-7.5z"/></g></svg>